<?xml version="1.0" encoding="UTF-8"?>
<svg id="Layer_1" xmlns="http://www.w3.org/2000/svg" xmlns:xlink="http://www.w3.org/1999/xlink" version="1.1" viewBox="0 0 512 512">
  <!-- Generator: Adobe Illustrator 29.3.1, SVG Export Plug-In . SVG Version: 2.1.0 Build 151)  -->
  <defs>
    <style>
      .st0 {
        fill: #30144b;
      }
    </style>
  </defs>
  <g id="Layer_2">
    <g>
      <circle class="st0" cx="139.6" cy="273.7" r="64" transform="translate(-152.6 178.9) rotate(-45)"/>
      <path class="st0" d="M151.8,385.2h-24.4c-46.3,0-83.9,37.6-83.9,83.9h192.2c0-46.4-37.6-83.9-83.9-83.9Z"/>
      <circle class="st0" cx="372.4" cy="106.8" r="64"/>
      <path class="st0" d="M384.6,218.3h-24.4c-46.4,0-83.9,37.6-83.9,83.9h192.2c0-46.4-37.6-83.9-83.9-83.9Z"/>
      <path class="st0" d="M383.7,349.6c-.4-.4-.8-.7-1.2-1.1-.2-.1-.4-.3-.5-.4-.2-.2-.5-.4-.7-.5-.2-.1-.5-.3-.7-.4-.2-.1-.4-.3-.7-.4-.2-.1-.5-.2-.7-.3s-.5-.2-.7-.3c-.2-.1-.5-.2-.7-.3-.3,0-.5-.2-.8-.3-.2,0-.5-.1-.7-.2-.3,0-.5-.1-.8-.2-.3,0-.5,0-.8-.1-.2,0-.5,0-.8-.1-.5,0-1,0-1.4,0s-.1,0-.1,0c0,0-.1,0-.2,0-.5,0-.9,0-1.4,0-.3,0-.5,0-.8.1-.3,0-.5,0-.8.1-.3,0-.6.1-.8.2-.2,0-.5.1-.7.2-.3,0-.5.2-.8.3-.2,0-.5.2-.7.2-.2.1-.5.2-.7.3-.2.1-.5.2-.7.3s-.5.3-.7.4c-.2.1-.5.3-.7.4-.2.2-.5.4-.7.5-.2.1-.4.3-.5.4-.4.3-.8.7-1.2,1.1l-29.4,29.4c-6.2,6.2-6.2,16.4,0,22.6s7.2,4.7,11.3,4.7,8.2-1.6,11.3-4.7l2.1-2.1v37h-76.8c-8.8,0-16,7.2-16,16s7.2,16,16,16h92.8c8.8,0,16-7.2,16-16v-53l2.1,2.1c3.1,3.1,7.2,4.7,11.3,4.7s8.2-1.6,11.3-4.7c6.2-6.2,6.2-16.4,0-22.6l-29.4-29.4Z"/>
      <path class="st0" d="M232.4,45h-92.8c-8.8,0-16,7.2-16,16v53l-2.1-2.1c-6.2-6.2-16.4-6.2-22.6,0s-6.2,16.4,0,22.6l29.4,29.4c.4.4.8.7,1.2,1.1.2.1.4.3.6.4.2.2.5.4.7.5.2.1.5.3.7.4.2.1.4.3.7.4.2.1.5.2.7.4.2.1.5.2.7.3.2.1.5.2.7.3.2,0,.5.2.8.3.2,0,.5.1.7.2.3,0,.5.1.8.2.3,0,.6,0,.8.1.2,0,.5,0,.7.1.5,0,1.1,0,1.6,0s1.1,0,1.6,0c.2,0,.5,0,.7-.1.3,0,.6,0,.8-.1.3,0,.5-.1.8-.2.2,0,.5-.1.7-.2.3,0,.5-.2.8-.3.2,0,.5-.2.7-.3.2-.1.5-.2.7-.3.2-.1.5-.2.7-.4.2-.1.4-.3.7-.4.2-.1.5-.3.7-.4.2-.2.5-.4.7-.5.2-.1.4-.3.6-.4.4-.3.8-.7,1.2-1.1l29.4-29.4c6.2-6.2,6.2-16.4,0-22.6s-16.4-6.2-22.6,0l-2.1,2.1v-37h76.8c8.8,0,16-7.2,16-16s-7.2-16-16-16Z"/>
    </g>
  </g>
</svg>