<?xml version="1.0" encoding="UTF-8"?>
<svg id="Layer_1" xmlns="http://www.w3.org/2000/svg" version="1.1" viewBox="0 0 512 512">
  <!-- Generator: Adobe Illustrator 29.2.1, SVG Export Plug-In . SVG Version: 2.1.0 Build 116)  -->
  <defs>
    <style>
      .st0 {
        fill: #fff;
        stroke: #fff;
        stroke-miterlimit: 10;
        stroke-width: 7px;
      }
    </style>
  </defs>
  <rect x="-1.5" y="-1.5" width="515" height="515" rx="60" ry="60"/>
  <path class="st0" d="M152.2,162.6c0-30.9,25-55.9,55.9-55.9h95.9c30.9,0,55.9,25,55.9,55.9s-10,36.7-25.2,46.7c15.2,10,25.2,27.2,25.2,46.7,0,30.9-25,55.9-55.9,55.9h-1.2c-14.5,0-27.6-5.5-37.6-14.5v51.5c0,31.3-25.7,56.5-56.8,56.5s-56.2-25-56.2-55.9,10-36.7,25.2-46.7c-15.2-10-25.2-27.2-25.2-46.7s10-36.7,25.2-46.7c-15.2-10-25.2-27.2-25.2-46.7h0ZM246.8,218.4h-38.8c-20.8,0-37.6,16.8-37.6,37.6s16.7,37.4,37.3,37.6h39v-75.1h0ZM265.2,256c0,20.8,16.8,37.6,37.6,37.6h1.2c20.8,0,37.6-16.8,37.6-37.6s-16.8-37.6-37.6-37.6h-1.2c-20.8,0-37.6,16.8-37.6,37.6h0ZM208.1,311.9h-.2c-20.6.1-37.3,16.9-37.3,37.6s17,37.6,37.9,37.6,38.5-17.1,38.5-38.2v-37h-38.8ZM208.1,125c-20.8,0-37.6,16.8-37.6,37.6s16.8,37.6,37.6,37.6h38.8v-75.1h-38.8ZM265.2,200.1h38.8c20.8,0,37.6-16.8,37.6-37.6s-16.8-37.6-37.6-37.6h-38.8v75.1h0Z"/>
</svg>