<?xml version="1.0" encoding="UTF-8"?>
<svg id="Layer_1" xmlns="http://www.w3.org/2000/svg" xmlns:xlink="http://www.w3.org/1999/xlink" version="1.1" viewBox="0 0 378.7 110.8">
  <!-- Generator: Adobe Illustrator 29.3.1, SVG Export Plug-In . SVG Version: 2.1.0 Build 151)  -->
  <defs>
    <style>
      .st0 {
        fill: #30144b;
      }

      .st1 {
        fill: #fff;
      }
    </style>
  </defs>
  <path class="st0" d="M21.5,98.4c.7,0,1.3-.2,2-.2,2.7-.2,5.3-.7,8-.7,5.4.2,37.8-.9,40.8-.7,1.7,0,3.3.2,5,.4,3.7.1,7.4.3,11.1.4.6-.2,1.2,0,1.6.5,1.4-.6,3-.4,4.4-.2,9.2,1.2,18.5,1,27.7,1.4.5-.2,1,0,1.4.3,1.8,0,3.7-.1,5.5,0,10,.5,20,1.1,29.9,1.7.6-.2,1.1-.1,1.5.3,1-.5,2-.3,2.9-.2,10.8.8,21.6,1.4,32.5,1.3,9-.1,18-.8,26.9-2.2,6.1-.9,12.1-2.6,18.1-3.7,6.2-1.1,12.5-1.9,18.4-4.4.3-.1.7,0,1,0,.6-.2,1.1-.2,1.6.3,2.6-.7,4.5.9,6.4,2.1,6.3,3.8,13.3,6.2,19.8,9.6,1.1.6,2.5.9,3.8,1.1,5.6.8,11.2,1.7,16.9,1.6,7.9-.1,15.6-1.2,23.4-2.5,2.1-.4,4.3-.8,6.3-1.5,5.5-1.9,11.1-3.5,16.9-4.4,1.9-.3,3.8-.7,5.5-1.8-2.3-2.8-5.6-3.5-7.8-5.9-.1,0-.3,0-.4-.1-1-.5-2.9-.4-2.6-2.1.2-1.2,1.7-1.1,2.7-1.4,1.3-1.4,3.1-1.9,4.8-2.6,2.3-1,4.6-1.9,6.9-3,2.9-1.5,5.3-3.5,6.5-6.6,1.2-3,.4-5.5-1.5-8-.7-.8-.5-1.9,0-2.8.4-.7.9-1.4,1.3-2.1,2-3.7,1.7-7.2-1.1-10.2-4.3-4.6-8.9-9-15.3-10.9-1.4-.4-2.8-1.1-4.1-1.8-2.2-1.2-2.5-2.2-1.3-4.4,2-3.5,2.2-7.6,4.7-10.9,0-.1.1-.3,0-.5,0-.3-.2-.6-.4-.8-.2-.2-.7-.3-.9-.2-1.1.8-2.1,1.7-3.2,2.4-2.5,1.6-4.8,3.7-8,3.4-.4.6-.9,1-1.6,1.1-8.3,1.2-16.3,3.4-24.3,5.6-.6.2-1.3.4-1.9.5-.6.1-1.3-.6-1.1-1.2,1.9-5.3,3.8-10.6,5.7-16,.1-.3.2-.7.5-.8,2.5-1.3,4.5-3.4,7.5-3.7,2-.2,4.7,1.6,5.5,3.6.2.6.5,1.3.4,1.9-.2,3.7,2.6,6,4,8.9.1.3,1.2,0,1.8,0,.8-1.1.7-2.2-.2-3.2-1.9-2-2.9-4.4-3.4-7.1-.5-2.6-2.2-4-4.6-4.9-2-.7-3.9-.4-5.9.2-1.8.5-3.2,2.7-5,1.9-2.1-.9-.9-3.6-1.5-5.4-.8-2.4-1.6-3.3-4.1-3.7-2.9-.5-5.6.2-8.2,1.8-3.3,2-6.1,4.7-8.9,7.4-4.6,4.4-8.6,9.3-13.9,12.9-2.1,1.4-3.9,3.3-4.8,5.7-1.8,4.6-4.6,8.5-7.6,12.3-2.1,2.6-4.1,5.3-4.6,8.8-.6,4.1-1.4,8.2-1.5,12.4.2.6.3,1.2-.4,1.7.9.7.8,1.8.7,2.8-.3,2.5-.7,4.9-1.2,7.4-1.2,6.4-5.7,9.9-11.5,11.8-2,.7-4.2,1-6.3,1.3-2,.4-3.9.7-5.8,1.3-9.1,2.6-18.5,4.3-27.9,5.1-.6.1-1.2.3-1.7-.3-.6.7-1.4.8-2.2.9-3.4.5-6.8.5-10.2.3-.6.2-1.1,0-1.6-.4-1.6.8-3.3.6-4.9.5-12.5-.4-25-.7-37.5-1.2-11.5-.5-23-1.1-34.5-1.7-13.2-.7-26.3-1.7-39.5-2.4-7.2-.4-14.4-.7-21.5-.6-12.7.2-25.4.8-38.1,1.2-4.6.2-9.2.4-13.9.7-1.2,0-2.3.3-3.5.6-.9.2-1.4.9-1.3,1.8,0,1,.8,1.5,1.6,1.6.8.1,1.7,0,2.5,0,5.5-.4,11-.8,16.5-1.1ZM362.4,48c1.3,1,2.6,2,4,3,4,2.8,4,6.4,2.2,9.1-2.2,3.4-3.3,6.4-.9,10.1,1.2,1.8.3,3.9-1,5.6-1.3,1.6-3,2.7-4.8,3.5-4.7,2.1-9.5,4.1-14.2,6.2-1.8.8-3.5.8-5.3,0-2.3-1-4.7-1.7-7-2.7-2.4-1-2.4-1.1-.6-3.2,1.9-2.3,2-7.2.4-9.1-.4-.5-1-.9-1.4-1.4-1.1-1.4-1.2-2.5,0-4,1.8-2.2,3.7-4.3,5.5-6.5,1.3-1.5,3-2.8,3.8-4.6,1.4-3.3,3.9-6.2,4.3-10,0-.9,0-2,1.1-3,4.7,2,9.8,3.6,14.1,6.9ZM314.7,19.6c.1,0,.3.6.3.8-.3,1.1-.4,2.4-1,3.3-1,1.6-1.5,3.3-1.8,5.1-.3,1.5-.9,2.8-1.5,4.2-.9,2.6-2.4,4.4-5.3,5.4-3.7,1.2-7.4,2.8-11,4.3,2.5-2.8,5-5.7,7.6-8.5,3.5-3.8,6.7-7.9,9.5-12.2.5-.8,1.2-1.6,1.9-2.3.3-.3.9-.2,1.3-.1ZM314.2,11.5c.7.2,1.2,1.5,1.1,2.5,0,1.1-.7,1.8-1.3,2.6-5.4,6.8-10.7,13.7-16.6,20-1.9,2.1-4,4-6.3,5.6-2.5,1.7-4.8,3.5-6.6,6-2,2.6-4.5,4.9-6.9,7.3-.6.6-1.3,1.1-2.2,1-.2-.2-.6-.4-.6-.7,0-.5,0-1,.1-1.4,2.4-5,5.2-9.8,9.8-13.1,4-2.9,7.4-6.2,10-10.4,1.5-2.4,3.7-4.3,5.7-6.3,3.6-3.5,7.2-7,10.4-10.8.4-.5.9-1,1.4-1.4.6-.6,1.2-1.2,2.1-1ZM269.5,51.6c1.5-2.2,3-4.4,4.7-6.5,2.3-2.7,4.2-5.6,5.5-8.9.9-2.4,2.4-4.4,4.5-5.9,5.7-4.1,10.1-9.7,15.2-14.5,2.3-2.2,4.6-4.4,7.4-5.9.7-.4,1.5-.8,2.3-1.1,1.1-.3,2.8-.9,3.3,0,.9,1.4-.8,2.2-1.7,3.1-4.9,4.8-9.9,9.5-14.7,14.3-1.5,1.5-2.6,3.4-3.9,5.2-2.2,2.9-4.4,5.9-7.6,7.8-2.8,1.6-4.8,4.2-6.6,6.8-2.1,3-4.4,5.9-5.7,9.4-.8,2.2-1,2.1-4.2,4.3-.7-3,0-5.6,1.6-8ZM274.3,57.6c0,0,.2.2.3.2-.2.1-.4.3-.5.4-.1-.1-.3-.2-.4-.3.2-.1.4-.3.6-.4ZM275.9,81.2c0-.3.1-.6.3-.9,0-.1.2-.3.3-.4,3.1-1.3,5.6-3.7,8.5-5.2,3.2-1.6,6.2-3.9,10-3.9,6.1-2.4,12.1-4.8,17.4-8.8,2.7-2.1,5.4-4.3,9.1-6.6-4,1.2-7,2.6-9.7,4.6-5.2,3.7-10.9,6.5-16.8,8.9-4.5,1.9-8.9,3.6-12.6,7-1.5,1.4-3.8,2-5.8,2.9-.4.2-1,0-1.4-.3-.1,0-.1-.7,0-1,.2-.6.5-1.3.9-1.8,2.6-3.1,5.2-6.1,7.7-9.2,1.8-2.3,4.6-3.3,6.7-5.3,0-.6-.1-1.3-.2-1.9-4.4,1.8-8.1,4.7-11,8.4-2.5,3.2-5.1,6.2-7.7,9.2-.7.8-1.4,2.1-2.8,1.5-1.2-.5-1.9-2.1-1.6-3.8.3-2.3,1.1-4.5,2.5-6.5.6-.8,1.1-1.7,1.8-2.4,4.2-4.5,8.5-9,12.8-13.3,1.5-1.5,3.4-2.8,5.3-3.8,9.8-5,19.8-9.7,30.6-12.5,2.7-.7,5.5-1.5,8.2-2.3,2.1-.5,4.1-1.3,6.4-.4,1.2.5,2.2-.2,3.3-.8,2.3-1.3,5-1.9,7.6-2.6.9-.2,1.8.6,1.5,1.4-1.8,4.7-2.6,9.7-3.9,14.5-.7,2.6-2.5,4.7-4.3,6.7-3.2,3.4-6.5,6.7-9.3,10.5-.9,1.3-2.2,2-3.5,2.7-2.7,1.6-5.4,3.4-8,5.2-1.1.7-2.3,1.4-3.3,2.1-5.3,4.1-11.6,3.6-17.7,4.3-6,.7-12,1.3-17.6,3.6-.8.3-1.6.4-2.4.6-.5,0-1,0-1.1-.6ZM314.8,96.8c.3,0,.7,0,1,0,8,1.3,16,.9,24,.9.3,0,.7,0,1,.2-.8-.9-2.1-.9-3.1-1-2.8-.3-5.7-.8-8.5-.8-6.7.2-13.3-1.3-20-1.4-6.7-.1-13.3-.8-20-1.4-3.7-.3-7.3-.9-10.9-1.4-.5,0-1-.2-1.4-.4-.2-.1-.5-.5-.5-.8,0-.2.3-.6.5-.7.8-.3,1.6-.6,2.4-.6,4.9,0,9.6-1.1,14.5-1.4,7.5-.4,15-.4,22.5.4,3.6.4,7.3.7,10.9,1,.7,0,1.5-.2,2.3-.3-.4-1-1.1-1.2-1.7-1.3-8.6-1.7-17.2-2.3-25.9-1.9-7.2.3-14.3.9-21.4,1.9-1.6.2-3.3.2-5,.2-.8,0-1.8,0-2-1-.2-1.3.9-1.6,1.8-2,.9-.4,1.9-.6,2.9-1,7.4-3.1,15.1-4.1,23-4.6,10.7-.7,20.9,1.1,31,4.6,7.5,2.6,14.6,5.6,20.4,9,.9.5,1.7,1.1,2.5,1.7.7.6.6,1.8-.2,2-3.1.8-6.1,1.6-9.2,2.5-1.3.4-2.6.4-3.6-.4,0,.3,0,.7-.2.8-1.6,1-3.4,1.5-5.2,1.8-3.5.5-7,1-10.6,1.5-10.4,2.1-20.9,1.6-31.4,0-2.2-.3-4.3-.8-6.2-1.8-3.1-1.7-6.2-3.4-9.5-4.5-.4-.2-.8-.5-1.2-.8-.4-.3,0-1.6.4-1.7.6-.1,1.3-.3,2-.2,11.6,1.8,23.3,2.6,35,3.1Z"/>
  <g>
    <path class="st1" d="M362.4,48c1.3,1,2.6,2,4,3,4,2.8,4,6.4,2.2,9.1-2.2,3.4-3.3,6.4-.9,10.1,1.2,1.8.3,3.9-1,5.6-1.3,1.6-3,2.7-4.8,3.5-4.7,2.1-9.5,4.1-14.2,6.2-1.8.8-3.5.8-5.3,0-2.3-1-4.7-1.7-7-2.7-2.4-1-2.4-1.1-.6-3.2,1.9-2.3,2-7.2.4-9.1-.4-.5-1-.9-1.4-1.4-1.1-1.4-1.2-2.5,0-4,1.8-2.2,3.7-4.3,5.5-6.5,1.3-1.5,3-2.8,3.8-4.6,1.4-3.3,3.9-6.2,4.3-10,0-.9,0-2,1.1-3,4.7,2,9.8,3.6,14.1,6.9Z"/>
    <path class="st1" d="M314.7,19.6c.1,0,.3.6.3.8-.3,1.1-.4,2.4-1,3.3-1,1.6-1.5,3.3-1.8,5.1-.3,1.5-.9,2.8-1.5,4.2-.9,2.6-2.4,4.4-5.3,5.4-3.7,1.2-7.4,2.8-11,4.3,2.5-2.8,5-5.7,7.6-8.5,3.5-3.8,6.7-7.9,9.5-12.2.5-.8,1.2-1.6,1.9-2.3.3-.3.9-.2,1.3-.1Z"/>
    <path class="st1" d="M314.2,11.5c.7.2,1.2,1.5,1.1,2.5,0,1.1-.7,1.8-1.3,2.6-5.4,6.8-10.7,13.7-16.6,20-1.9,2.1-4,4-6.3,5.6-2.5,1.7-4.8,3.5-6.6,6-2,2.6-4.5,4.9-6.9,7.3-.6.6-1.3,1.1-2.2,1-.2-.2-.6-.4-.6-.7,0-.5,0-1,.1-1.4,2.4-5,5.2-9.8,9.8-13.1,4-2.9,7.4-6.2,10-10.4,1.5-2.4,3.7-4.3,5.7-6.3,3.6-3.5,7.2-7,10.4-10.8.4-.5.9-1,1.4-1.4.6-.6,1.2-1.2,2.1-1Z"/>
    <path class="st1" d="M269.5,51.6c1.5-2.2,3-4.4,4.7-6.5,2.3-2.7,4.2-5.6,5.5-8.9.9-2.4,2.4-4.4,4.5-5.9,5.7-4.1,10.1-9.7,15.2-14.5,2.3-2.2,4.6-4.4,7.4-5.9.7-.4,1.5-.8,2.3-1.1,1.1-.3,2.8-.9,3.3,0,.9,1.4-.8,2.2-1.7,3.1-4.9,4.8-9.9,9.5-14.7,14.3-1.5,1.5-2.6,3.4-3.9,5.2-2.2,2.9-4.4,5.9-7.6,7.8-2.8,1.6-4.8,4.2-6.6,6.8-2.1,3-4.4,5.9-5.7,9.4-.8,2.2-1,2.1-4.2,4.3-.7-3,0-5.6,1.6-8Z"/>
    <path class="st1" d="M274.3,57.6c0,0,.2.2.3.2-.2.1-.4.3-.5.4-.1-.1-.3-.2-.4-.3.2-.1.4-.3.6-.4Z"/>
    <path class="st1" d="M275.9,81.2c0-.3.1-.6.3-.9,0-.1.2-.3.3-.4,3.1-1.3,5.6-3.7,8.5-5.2,3.2-1.6,6.2-3.9,10-3.9,6.1-2.4,12.1-4.8,17.4-8.8,2.7-2.1,5.4-4.3,9.1-6.6-4,1.2-7,2.6-9.7,4.6-5.2,3.7-10.9,6.5-16.8,8.9-4.5,1.9-8.9,3.6-12.6,7-1.5,1.4-3.8,2-5.8,2.9-.4.2-1,0-1.4-.3-.1,0-.1-.7,0-1,.2-.6.5-1.3.9-1.8,2.6-3.1,5.2-6.1,7.7-9.2,1.8-2.3,4.6-3.3,6.7-5.3,0-.6-.1-1.3-.2-1.9-4.4,1.8-8.1,4.7-11,8.4-2.5,3.2-5.1,6.2-7.7,9.2-.7.8-1.4,2.1-2.8,1.5-1.2-.5-1.9-2.1-1.6-3.8.3-2.3,1.1-4.5,2.5-6.5.6-.8,1.1-1.7,1.8-2.4,4.2-4.5,8.5-9,12.8-13.3,1.5-1.5,3.4-2.8,5.3-3.8,9.8-5,19.8-9.7,30.6-12.5,2.7-.7,5.5-1.5,8.2-2.3,2.1-.5,4.1-1.3,6.4-.4,1.2.5,2.2-.2,3.3-.8,2.3-1.3,5-1.9,7.6-2.6.9-.2,1.8.6,1.5,1.4-1.8,4.7-2.6,9.7-3.9,14.5-.7,2.6-2.5,4.7-4.3,6.7-3.2,3.4-6.5,6.7-9.3,10.5-.9,1.3-2.2,2-3.5,2.7-2.7,1.6-5.4,3.4-8,5.2-1.1.7-2.3,1.4-3.3,2.1-5.3,4.1-11.6,3.6-17.7,4.3-6,.7-12,1.3-17.6,3.6-.8.3-1.6.4-2.4.6-.5,0-1,0-1.1-.6Z"/>
    <path class="st1" d="M314.8,96.8c.3,0,.7,0,1,0,8,1.3,16,.9,24,.9.3,0,.7,0,1,.2-.8-.9-2.1-.9-3.1-1-2.8-.3-5.7-.8-8.5-.8-6.7.2-13.3-1.3-20-1.4-6.7-.1-13.3-.8-20-1.4-3.7-.3-7.3-.9-10.9-1.4-.5,0-1-.2-1.4-.4-.2-.1-.5-.5-.5-.8,0-.2.3-.6.5-.7.8-.3,1.6-.6,2.4-.6,4.9,0,9.6-1.1,14.5-1.4,7.5-.4,15-.4,22.5.4,3.6.4,7.3.7,10.9,1,.7,0,1.5-.2,2.3-.3-.4-1-1.1-1.2-1.7-1.3-8.6-1.7-17.2-2.3-25.9-1.9-7.2.3-14.3.9-21.4,1.9-1.6.2-3.3.2-5,.2-.8,0-1.8,0-2-1-.2-1.3.9-1.6,1.8-2,.9-.4,1.9-.6,2.9-1,7.4-3.1,15.1-4.1,23-4.6,10.7-.7,20.9,1.1,31,4.6,7.5,2.6,14.6,5.6,20.4,9,.9.5,1.7,1.1,2.5,1.7.7.6.6,1.8-.2,2-3.1.8-6.1,1.6-9.2,2.5-1.3.4-2.6.4-3.6-.4,0,.3,0,.7-.2.8-1.6,1-3.4,1.5-5.2,1.8-3.5.5-7,1-10.6,1.5-10.4,2.1-20.9,1.6-31.4,0-2.2-.3-4.3-.8-6.2-1.8-3.1-1.7-6.2-3.4-9.5-4.5-.4-.2-.8-.5-1.2-.8-.4-.3,0-1.6.4-1.7.6-.1,1.3-.3,2-.2,11.6,1.8,23.3,2.6,35,3.1Z"/>
  </g>
</svg>