<?xml version="1.0" encoding="UTF-8"?>
<svg id="Layer_1" xmlns="http://www.w3.org/2000/svg" version="1.1" viewBox="0 0 33.9 33.9">
  <!-- Generator: Adobe Illustrator 29.2.1, SVG Export Plug-In . SVG Version: 2.1.0 Build 116)  -->
  <defs>
    <style>
      .st0 {
        fill: #231f20;
      }

      .st1 {
        fill: #fff;
      }
    </style>
  </defs>
  <g id="_01_-_PS">
    <rect class="st0" width="33.9" height="33.9" rx="3" ry="3"/>
    <path class="st1" d="M11.3,9v16.7h-3.1V9h3.1Z"/>
    <path class="st1" d="M25.8,8v17.7h-2.8c0-.5-.1-1-.1-1.5-.7,1.1-1.8,1.8-3.7,1.8-3.2,0-5.2-2.6-5.2-6.4s2.1-6.6,5.6-6.6,2.9.7,3.2,1.3v-6.3h3ZM17.1,19.5c0,2.6,1.1,4,2.9,4,2.5,0,2.9-2,2.9-4.1s-.4-4-2.8-4c-1.9,0-3,1.6-3,4.1Z"/>
  </g>
</svg>