<?xml version="1.0" encoding="UTF-8"?>
<svg id="Layer_1" xmlns="http://www.w3.org/2000/svg" version="1.1" viewBox="0 0 72 72">
  <!-- Generator: Adobe Illustrator 29.4.0, SVG Export Plug-In . SVG Version: 2.1.0 Build 152)  -->
  <defs>
    <style>
      .st0, .st1 {
        stroke: #e3d3e7;
      }

      .st0, .st1, .st2 {
        stroke-miterlimit: 10;
      }

      .st0, .st2 {
        fill: #e3d3e7;
      }

      .st3 {
        fill: #2f184b;
      }

      .st1 {
        fill: none;
        stroke-linecap: round;
      }

      .st1, .st2 {
        stroke-width: 1.5px;
      }

      .st2 {
        stroke: #30144b;
      }
    </style>
  </defs>
  <path class="st2" d="M24.4,21.2h23.2c8.2,0,14.8,6.6,14.8,14.8h0c0,8.1-6.6,14.8-14.8,14.8h-23.2c-8.2,0-14.8-6.6-14.8-14.8h0c0-8.1,6.6-14.8,14.8-14.8Z"/>
  <g>
    <circle class="st3" cx="24.8" cy="36" r="11.2"/>
    <g>
      <circle class="st0" cx="24.7" cy="36" r="3.5"/>
      <line class="st1" x1="24.8" y1="28.9" x2="24.8" y2="30.1"/>
      <line class="st1" x1="24.8" y1="41.7" x2="24.8" y2="43"/>
      <line class="st1" x1="31.7" y1="35.9" x2="30.5" y2="35.9"/>
      <line class="st1" x1="19" y1="35.9" x2="17.9" y2="35.9"/>
      <line class="st1" x1="28.7" y1="31.8" x2="29.6" y2="30.8"/>
      <line class="st1" x1="19.6" y1="40.8" x2="20.6" y2="39.9"/>
      <line class="st1" x1="29.6" y1="41.1" x2="28.7" y2="40.2"/>
      <line class="st1" x1="20.6" y1="32.1" x2="19.6" y2="31.1"/>
    </g>
  </g>
</svg>