<?xml version="1.0" encoding="UTF-8"?>
<svg id="Layer_1" xmlns="http://www.w3.org/2000/svg" version="1.1" viewBox="0 0 33.9 33.9">
  <!-- Generator: Adobe Illustrator 29.5.1, SVG Export Plug-In . SVG Version: 2.1.0 Build 141)  -->
  <defs>
    <style>
      .st0 {
        fill: #4e2079;
      }

      .st1 {
        fill: #f3ebfa;
      }
    </style>
  </defs>
  <g id="Group">
    <rect class="st1" width="33.9" height="33.9" rx="3" ry="3"/>
    <path class="st0" d="M4.7,8.5h6.7c3.4,0,5.8,1.9,5.8,5s-2.6,5.2-5.9,5.2h-3.5v6.4h-3.1s0-16.6,0-16.6ZM7.9,16.2h3.1c1.9,0,3-.8,3-2.6s-1.3-2.6-3-2.6h-3.1v5.2Z"/>
    <path class="st0" d="M21.6,21.5c.3,1.1,1.4,1.9,2.6,1.7,1.5,0,2-.6,2-1.4s-.5-1.3-2.5-1.8c-3.9-1-4.6-2.1-4.6-3.9s1.3-3.7,4.8-3.7,4.8,2,5,3.7h-2.9c-.1-.6-.5-1.5-2.2-1.5s-1.8.6-1.8,1.2.4,1.1,2.5,1.6c4,.9,4.7,2.3,4.7,4.1s-1.6,3.9-5.2,3.9-5.1-1.8-5.4-4h3Z"/>
  </g>
</svg>