<?xml version="1.0" encoding="UTF-8"?>
<svg id="Layer_1" xmlns="http://www.w3.org/2000/svg" version="1.1" viewBox="0 0 24 24">
  <!-- Generator: Adobe Illustrator 29.3.1, SVG Export Plug-In . SVG Version: 2.1.0 Build 151)  -->
  <defs>
    <style>
      .st0 {
        fill: none;
      }

      .st1 {
        fill: #30144b;
      }
    </style>
  </defs>
  <path class="st0" d="M0,0h24v24H0V0Z"/>
  <path class="st1" d="M7.9,18c-.3-1.3-1.6-2.3-2.2-3-2.8-3.4-2.2-8.5,1.2-11.2,3.4-2.8,8.5-2.2,11.2,1.2,2.3,2.9,2.3,7.1,0,10-.5.7-1.9,1.7-2.2,3H7.9h0ZM16,20v1c0,1.1-.9,2-2,2h-4c-1.1,0-2-.9-2-2v-1h8ZM13,10v-4l-4.5,6h2.5v4l4.5-6s-2.5,0-2.5,0Z"/>
</svg>