<?xml version="1.0" encoding="UTF-8"?>
<svg id="Layer_1" xmlns="http://www.w3.org/2000/svg" version="1.1" viewBox="0 0 72 72">
  <!-- Generator: Adobe Illustrator 29.4.0, SVG Export Plug-In . SVG Version: 2.1.0 Build 152)  -->
  <defs>
    <style>
      .st0 {
        fill: #2f184b;
        stroke: #e3d3e8;
        stroke-miterlimit: 10;
      }

      .st1 {
        fill: #e3d3e8;
      }

      .st2 {
        fill: #30184c;
      }
    </style>
  </defs>
  <path class="st0" d="M24.4,21.2h23.1c8.2,0,14.8,6.6,14.8,14.8h0c0,8.1-6.6,14.8-14.8,14.8h-23.1c-8.2,0-14.8-6.6-14.8-14.8h0c0-8.1,6.6-14.8,14.8-14.8Z"/>
  <g>
    <circle class="st1" cx="47.5" cy="36" r="11.2"/>
    <g>
      <path class="st2" d="M51.5,30.9c0,.8-.6,1.4-1.4,1.4.8,0,1.4.6,1.4,1.4,0-.8.6-1.4,1.4-1.4-.8,0-1.4-.6-1.4-1.4Z"/>
      <path class="st2" d="M48.7,32.5c0,.8-.6,1.4-1.4,1.4.8,0,1.4.6,1.4,1.4,0-.8.6-1.4,1.4-1.4-.8,0-1.4-.6-1.4-1.4Z"/>
      <path class="st2" d="M50.8,37.2c0-.8.6-1.4,1.4-1.4-.8,0-1.4-.6-1.4-1.4,0,.8-.6,1.4-1.4,1.4.8,0,1.4.6,1.4,1.4Z"/>
      <path class="st2" d="M46.9,29.9c.6,0,.8.5.5,1-.5.7-.9,1-1.1,2-.8,3.4,2.5,6.1,5.7,5.2s1.3-.8,1.6-.2-.5,1.4-.8,1.8c-3.1,4.1-9.9,2.8-11.2-2.2-.9-3.5,1.6-7.4,5.3-7.7h0Z"/>
    </g>
  </g>
</svg>