<?xml version="1.0" encoding="UTF-8"?>
<svg id="Layer_1" xmlns="http://www.w3.org/2000/svg" version="1.1" viewBox="0 0 28 20">
  <!-- Generator: Adobe Illustrator 29.4.0, SVG Export Plug-In . SVG Version: 2.1.0 Build 152)  -->
  <defs>
    <style>
      .st0 {
        fill: #e4d3f4;
      }
    </style>
  </defs>
  <path class="st0" d="M2,4h24c1.1,0,2-.9,2-2s-.9-2-2-2H2C.9,0,0,.9,0,2s.9,2,2,2ZM26,8H2c-1.1,0-2,.9-2,2s.9,2,2,2h24c1.1,0,2-.9,2-2s-.9-2-2-2ZM26,16H2c-1.1,0-2,.9-2,2s.9,2,2,2h24c1.1,0,2-.9,2-2s-.9-2-2-2Z"/>
</svg>