<?xml version="1.0" encoding="UTF-8"?>
<svg id="Layer_3" xmlns="http://www.w3.org/2000/svg" xmlns:xlink="http://www.w3.org/1999/xlink" version="1.1" viewBox="0 0 32 32">
  <!-- Generator: Adobe Illustrator 29.3.1, SVG Export Plug-In . SVG Version: 2.1.0 Build 151)  -->
  <defs>
    <style>
      .st0 {
        fill: #30144b;
      }
    </style>
  </defs>
  <path class="st0" d="M16,18c-4.4,0-8,3.6-8,8v3c0,.6.4,1,1,1h14c.6,0,1-.4,1-1v-3c0-4.4-3.6-8-8-8ZM22,28h-2v-1c0-.6-.4-1-1-1s-1,.4-1,1v1h-4v-1c0-.6-.4-1-1-1s-1,.4-1,1v1h-2v-2c0-3.3,2.7-6,6-6s6,2.7,6,6v2Z"/>
  <path class="st0" d="M12,12.1v1.7c0,1.7,1.4,3.1,3.1,3.1h1.7c1.7,0,3.1-1.4,3.1-3.1v-1.7c0-1.7-1.4-3.1-3.1-3.1h-1.7c-1.7,0-3.1,1.4-3.1,3.1ZM14,12.1c0-.6.5-1.1,1.1-1.1h1.7c.6,0,1.1.5,1.1,1.1v1.7c0,.6-.5,1.1-1.1,1.1h-1.7c-.6,0-1.1-.5-1.1-1.1v-1.7Z"/>
  <path class="st0" d="M22,11c-.6,0-1,.4-1,1s.4,1,1,1c3.3,0,6,2.7,6,6v2h-2v-1c0-.6-.4-1-1-1s-1,.4-1,1v2c0,.6.4,1,1,1h4c.6,0,1-.4,1-1v-3c0-4.4-3.6-8-8-8Z"/>
  <path class="st0" d="M21.1,10h1.7c1.7,0,3.1-1.4,3.1-3.1v-1.7c0-1.7-1.4-3.1-3.1-3.1h-1.7c-1.7,0-3.1,1.4-3.1,3.1v1.7c0,1.7,1.4,3.1,3.1,3.1ZM20,5.1c0-.6.5-1.1,1.1-1.1h1.7c.6,0,1.1.5,1.1,1.1v1.7c0,.6-.5,1.1-1.1,1.1h-1.7c-.6,0-1.1-.5-1.1-1.1v-1.7Z"/>
  <path class="st0" d="M3,23h4c.6,0,1-.4,1-1v-2c0-.6-.4-1-1-1s-1,.4-1,1v1h-2v-2c0-3.3,2.7-6,6-6s1-.4,1-1-.4-1-1-1c-4.4,0-8,3.6-8,8v3c0,.6.4,1,1,1Z"/>
  <path class="st0" d="M9.1,10h1.7c1.7,0,3.1-1.4,3.1-3.1v-1.7c0-1.7-1.4-3.1-3.1-3.1h-1.7c-1.7,0-3.1,1.4-3.1,3.1v1.7c0,1.7,1.4,3.1,3.1,3.1ZM8,5.1c0-.6.5-1.1,1.1-1.1h1.7c.6,0,1.1.5,1.1,1.1v1.7c0,.6-.5,1.1-1.1,1.1h-1.7c-.6,0-1.1-.5-1.1-1.1v-1.7Z"/>
</svg>